<svg xmlns="http://www.w3.org/2000/svg" width="1086" height="1448" viewBox="0 0 1086 1448" aria-hidden="true">
  <defs>
    <linearGradient id="left-skin" x1="0" y1="0" x2="0" y2="1"><stop offset="0" stop-color="#fed2a6"/><stop offset=".58" stop-color="#fdc99e"/><stop offset="1" stop-color="#fdbc91"/></linearGradient>
    <linearGradient id="right-skin" x1="0" y1="0" x2="0" y2="1"><stop offset="0" stop-color="#fed8ad"/><stop offset=".58" stop-color="#fdcda2"/><stop offset="1" stop-color="#fdbb8f"/></linearGradient>
    <filter id="soft" x="-8%" y="-8%" width="116%" height="116%"><feGaussianBlur stdDeviation="0.65"/></filter>
  </defs>
  <path d="M309 501C329 462 363 449 400 451C431 453 455 471 468 493C456 529 419 550 378 551C345 550 319 532 309 501Z" fill="url(#left-skin)" filter="url(#soft)"/>
  <path d="M574 493C597 457 626 447 660 448C693 449 718 467 731 490C720 523 688 540 650 540C619 540 592 522 574 493Z" fill="url(#right-skin)" filter="url(#soft)"/>
  <path d="M313 503C338 450 425 443 468 493C446 541 350 560 313 503Z" fill="#fff8e9" stroke="#713819" stroke-width="3.6" stroke-linejoin="round"/>
  <path d="M313 503C339 444 425 436 468 493" fill="none" stroke="#382010" stroke-width="8.5" stroke-linecap="round"/>
  <path d="M574 495C600 447 690 441 731 489C710 533 616 551 574 495Z" fill="#fff8e9" stroke="#713819" stroke-width="3.6" stroke-linejoin="round"/>
  <path d="M574 495C600 440 690 433 731 489" fill="none" stroke="#382010" stroke-width="8.5" stroke-linecap="round"/>
</svg>
